<?xml version="1.0" standalone="no"?>
<!DOCTYPE svg PUBLIC "-//W3C//DTD SVG 20010904//EN"
 "http://www.w3.org/TR/2001/REC-SVG-20010904/DTD/svg10.dtd">
<svg version="1.0" xmlns="http://www.w3.org/2000/svg"
 width="700.000000pt" height="700.000000pt" viewBox="0 0 700.000000 700.000000"
 preserveAspectRatio="xMidYMid meet">
<metadata>
Created by potrace 1.11, written by Peter Selinger 2001-2013
</metadata>
<g transform="translate(0.000000,700.000000) scale(0.100000,-0.100000)"
fill="#000000" stroke="none">
<path d="M3360 6110 c-280 -101 -709 -254 -800 -285 -52 -18 -147 -52 -210
-75 -63 -23 -173 -62 -245 -86 -71 -25 -139 -49 -150 -54 -11 -5 -92 -35 -180
-66 -88 -31 -216 -76 -285 -101 -112 -40 -226 -81 -485 -173 -114 -40 -114
-40 -110 -58 1 -9 6 -46 10 -82 4 -36 9 -78 11 -95 2 -16 6 -52 9 -80 3 -27 8
-66 10 -85 2 -19 7 -60 10 -90 3 -30 8 -71 10 -90 5 -36 11 -92 20 -170 3 -25
9 -85 15 -135 6 -49 13 -110 16 -135 3 -25 7 -61 9 -80 5 -37 11 -85 20 -165
8 -74 15 -131 25 -215 6 -41 12 -102 15 -134 3 -33 7 -67 9 -75 3 -9 7 -48 10
-86 4 -39 8 -80 10 -90 2 -11 7 -51 10 -90 4 -38 9 -81 11 -95 2 -14 9 -70 15
-125 6 -55 13 -118 16 -140 2 -22 7 -60 9 -85 3 -25 8 -58 10 -75 2 -16 7 -63
11 -104 3 -41 8 -81 9 -90 2 -9 6 -41 10 -71 3 -30 8 -71 11 -90 3 -19 7 -60
10 -90 2 -30 6 -71 9 -90 3 -19 7 -57 10 -85 3 -27 7 -61 10 -75 2 -14 7 -54
10 -89 4 -35 8 -78 10 -95 3 -17 7 -53 10 -81 3 -27 7 -50 8 -51 7 -5 175 -98
242 -134 44 -24 85 -47 91 -51 6 -5 40 -24 75 -43 35 -18 222 -121 414 -228
193 -107 381 -211 418 -232 98 -53 138 -76 172 -96 17 -9 55 -31 85 -47 30
-17 75 -41 100 -55 25 -14 172 -96 328 -182 l283 -157 62 34 c34 19 82 45 107
59 25 14 218 121 430 238 212 117 439 243 505 280 66 37 140 78 165 92 376
207 927 512 933 518 4 3 14 60 22 126 15 122 17 140 35 304 10 89 14 123 25
210 2 19 7 60 10 90 3 30 8 71 10 90 2 19 7 60 10 90 4 30 8 66 10 80 2 14 6
52 10 85 3 33 10 96 15 140 6 44 12 103 15 130 3 28 8 61 10 75 2 14 7 57 11
95 3 39 8 77 9 85 2 8 6 47 10 85 4 39 8 81 10 95 2 14 6 43 9 65 3 22 8 67
11 100 3 33 7 71 10 85 2 14 7 52 10 85 3 33 10 96 16 140 10 84 14 116 24
205 3 30 8 71 10 90 3 19 18 157 35 305 17 149 32 284 35 300 8 68 29 261 30
279 0 14 -17 24 -70 43 -38 14 -124 45 -190 69 -182 65 -1691 603 -1765 629
-36 12 -180 64 -321 114 -140 50 -257 91 -260 90 -2 0 -65 -22 -139 -49z"/>
</g>
</svg>
